<mxfile host="drawio-plugin" agent="Mozilla/5.0 (Macintosh; Intel Mac OS X 10_15_7) AppleWebKit/537.36 (KHTML, like Gecko) Chrome/122.0.0.0 Safari/537.36" modified="2025-08-20T20:29:42.149Z" version="22.1.22" etag="6FTT9hTrj7P6vHPB9Yzr" type="embed">
  <diagram name="페이지-1" id="i9W8n2XISs6BEfSWjjDv">
    <mxGraphModel dx="4717" dy="853" grid="1" gridSize="10" guides="1" tooltips="1" connect="1" arrows="1" fold="1" page="1" pageScale="1" pageWidth="3300" pageHeight="4681" math="0" shadow="0">
      <root>
        <mxCell id="0" />
        <mxCell id="1" parent="0" />
        <mxCell id="H6zTBNjA9fI-ZNXuUB1H-1" value="" style="rounded=0;whiteSpace=wrap;html=1;" parent="1" vertex="1">
          <mxGeometry x="80" y="200" width="120" height="240" as="geometry" />
        </mxCell>
        <mxCell id="H6zTBNjA9fI-ZNXuUB1H-2" value="Load Balancer&lt;div&gt;&amp;amp;&lt;/div&gt;&lt;div&gt;API gateway&lt;/div&gt;&lt;div&gt;- authentication&lt;/div&gt;&lt;div&gt;- rate limiting&lt;/div&gt;&lt;div&gt;- SSL termination&lt;/div&gt;&lt;div&gt;-routing&lt;/div&gt;" style="rounded=0;whiteSpace=wrap;html=1;" parent="1" vertex="1">
          <mxGeometry x="270" y="70" width="120" height="420" as="geometry" />
        </mxCell>
        <mxCell id="H6zTBNjA9fI-ZNXuUB1H-3" value="File service" style="rounded=0;whiteSpace=wrap;html=1;" parent="1" vertex="1">
          <mxGeometry x="540" y="110" width="120" height="60" as="geometry" />
        </mxCell>
        <mxCell id="H6zTBNjA9fI-ZNXuUB1H-4" value="" style="endArrow=classic;startArrow=classic;html=1;rounded=0;" parent="1" edge="1">
          <mxGeometry width="50" height="50" relative="1" as="geometry">
            <mxPoint x="400" y="230" as="sourcePoint" />
            <mxPoint x="530" y="140" as="targetPoint" />
          </mxGeometry>
        </mxCell>
        <mxCell id="H6zTBNjA9fI-ZNXuUB1H-5" value="Upload&lt;div&gt;file, file&amp;nbsp;&lt;span style=&quot;background-color: transparent; color: light-dark(rgb(0, 0, 0), rgb(255, 255, 255));&quot;&gt;metadata&lt;/span&gt;&lt;/div&gt;" style="text;html=1;align=center;verticalAlign=middle;resizable=0;points=[];autosize=1;strokeColor=none;fillColor=none;" parent="1" vertex="1">
          <mxGeometry x="395" y="133" width="110" height="40" as="geometry" />
        </mxCell>
        <mxCell id="H6zTBNjA9fI-ZNXuUB1H-6" value="blob storage&lt;div&gt;(s3)&lt;/div&gt;&lt;div&gt;&lt;br&gt;&lt;/div&gt;" style="ellipse;whiteSpace=wrap;html=1;aspect=fixed;" parent="1" vertex="1">
          <mxGeometry x="810" y="10" width="100" height="100" as="geometry" />
        </mxCell>
        <mxCell id="H6zTBNjA9fI-ZNXuUB1H-7" value="" style="endArrow=classic;startArrow=classic;html=1;rounded=0;" parent="1" edge="1">
          <mxGeometry width="50" height="50" relative="1" as="geometry">
            <mxPoint x="670" y="130" as="sourcePoint" />
            <mxPoint x="800" y="70" as="targetPoint" />
          </mxGeometry>
        </mxCell>
        <mxCell id="H6zTBNjA9fI-ZNXuUB1H-8" value="Upload&amp;nbsp;&lt;span style=&quot;background-color: transparent; color: light-dark(rgb(0, 0, 0), rgb(255, 255, 255));&quot;&gt;file&lt;/span&gt;" style="text;html=1;align=center;verticalAlign=middle;resizable=0;points=[];autosize=1;strokeColor=none;fillColor=none;" parent="1" vertex="1">
          <mxGeometry x="685" y="60" width="80" height="30" as="geometry" />
        </mxCell>
        <mxCell id="H6zTBNjA9fI-ZNXuUB1H-9" value="&lt;div&gt;file metadata&lt;/div&gt;" style="ellipse;whiteSpace=wrap;html=1;aspect=fixed;" parent="1" vertex="1">
          <mxGeometry x="820" y="190" width="100" height="100" as="geometry" />
        </mxCell>
        <mxCell id="H6zTBNjA9fI-ZNXuUB1H-10" value="" style="endArrow=classic;startArrow=classic;html=1;rounded=0;" parent="1" edge="1">
          <mxGeometry width="50" height="50" relative="1" as="geometry">
            <mxPoint x="680" y="165" as="sourcePoint" />
            <mxPoint x="800" y="210" as="targetPoint" />
          </mxGeometry>
        </mxCell>
        <mxCell id="H6zTBNjA9fI-ZNXuUB1H-11" value="write metadata" style="text;html=1;align=center;verticalAlign=middle;resizable=0;points=[];autosize=1;strokeColor=none;fillColor=none;" parent="1" vertex="1">
          <mxGeometry x="720" y="150" width="100" height="30" as="geometry" />
        </mxCell>
        <mxCell id="H6zTBNjA9fI-ZNXuUB1H-12" value="File metadata&lt;div&gt;- fileId&lt;/div&gt;&lt;div&gt;- fileName&lt;/div&gt;&lt;div&gt;- mimeType&lt;/div&gt;&lt;div&gt;- size&lt;/div&gt;&lt;div&gt;- ownerId&lt;/div&gt;&lt;div&gt;- S3Link&lt;/div&gt;&lt;div&gt;- creation timestamp&lt;/div&gt;&lt;div&gt;- update timestamp&lt;/div&gt;&lt;div&gt;- .. metadata&lt;/div&gt;" style="text;html=1;align=left;verticalAlign=middle;resizable=0;points=[];autosize=1;strokeColor=none;fillColor=none;" parent="1" vertex="1">
          <mxGeometry x="930" y="95" width="130" height="160" as="geometry" />
        </mxCell>
        <mxCell id="H6zTBNjA9fI-ZNXuUB1H-13" value="storing the raw bytes of the files" style="text;html=1;align=center;verticalAlign=middle;resizable=0;points=[];autosize=1;strokeColor=none;fillColor=none;" parent="1" vertex="1">
          <mxGeometry x="900" y="10" width="190" height="30" as="geometry" />
        </mxCell>
        <mxCell id="H6zTBNjA9fI-ZNXuUB1H-14" value="Get a file by fileId" style="text;html=1;align=center;verticalAlign=middle;resizable=0;points=[];autosize=1;strokeColor=none;fillColor=none;" parent="1" vertex="1">
          <mxGeometry x="450" y="190" width="120" height="30" as="geometry" />
        </mxCell>
        <mxCell id="H6zTBNjA9fI-ZNXuUB1H-16" value="" style="curved=1;endArrow=classic;html=1;rounded=0;" parent="1" edge="1">
          <mxGeometry width="50" height="50" relative="1" as="geometry">
            <mxPoint x="140" y="190" as="sourcePoint" />
            <mxPoint x="790" y="40" as="targetPoint" />
            <Array as="points">
              <mxPoint x="130" y="120" />
              <mxPoint x="140" y="40" />
              <mxPoint x="290" y="30" />
              <mxPoint x="520" y="40" />
              <mxPoint x="560" y="40" />
            </Array>
          </mxGeometry>
        </mxCell>
        <mxCell id="H6zTBNjA9fI-ZNXuUB1H-17" value="download directly from s3" style="text;html=1;align=center;verticalAlign=middle;resizable=0;points=[];autosize=1;strokeColor=none;fillColor=none;" parent="1" vertex="1">
          <mxGeometry x="365" width="160" height="30" as="geometry" />
        </mxCell>
        <mxCell id="H6zTBNjA9fI-ZNXuUB1H-19" value="" style="endArrow=classic;startArrow=classic;html=1;rounded=0;" parent="1" edge="1">
          <mxGeometry width="50" height="50" relative="1" as="geometry">
            <mxPoint x="260" y="330" as="sourcePoint" />
            <mxPoint x="210" y="330" as="targetPoint" />
          </mxGeometry>
        </mxCell>
        <mxCell id="H6zTBNjA9fI-ZNXuUB1H-21" value="local folder" style="rounded=1;whiteSpace=wrap;html=1;" parent="1" vertex="1">
          <mxGeometry x="90" y="350" width="100" height="50" as="geometry" />
        </mxCell>
        <mxCell id="H6zTBNjA9fI-ZNXuUB1H-22" value="client app" style="rounded=1;whiteSpace=wrap;html=1;" parent="1" vertex="1">
          <mxGeometry x="90" y="240" width="100" height="50" as="geometry" />
        </mxCell>
        <mxCell id="H6zTBNjA9fI-ZNXuUB1H-24" value="&lt;div style=&quot;text-align: left;&quot;&gt;&lt;span style=&quot;background-color: transparent; color: light-dark(rgb(0, 0, 0), rgb(255, 255, 255));&quot;&gt;1. Remote changed&lt;/span&gt;&lt;/div&gt;&lt;div style=&quot;text-align: left;&quot;&gt;- pull for changes&lt;/div&gt;&lt;div&gt;- download the new file and replace&lt;/div&gt;&lt;div style=&quot;text-align: left;&quot;&gt;&lt;br&gt;&lt;/div&gt;&lt;div style=&quot;text-align: left;&quot;&gt;2. local changed&lt;/div&gt;&lt;div style=&quot;text-align: left;&quot;&gt;- upload the changed files to remote&lt;/div&gt;&lt;div&gt;&lt;br&gt;&lt;/div&gt;" style="text;html=1;align=center;verticalAlign=middle;resizable=0;points=[];autosize=1;strokeColor=none;fillColor=none;" parent="1" vertex="1">
          <mxGeometry x="-130" y="150" width="210" height="110" as="geometry" />
        </mxCell>
        <mxCell id="H6zTBNjA9fI-ZNXuUB1H-25" value="Sync service" style="rounded=0;whiteSpace=wrap;html=1;" parent="1" vertex="1">
          <mxGeometry x="550" y="345" width="120" height="60" as="geometry" />
        </mxCell>
        <mxCell id="H6zTBNjA9fI-ZNXuUB1H-26" value="" style="endArrow=classic;startArrow=classic;html=1;rounded=0;" parent="1" edge="1">
          <mxGeometry width="50" height="50" relative="1" as="geometry">
            <mxPoint x="400" y="310" as="sourcePoint" />
            <mxPoint x="530" y="370" as="targetPoint" />
          </mxGeometry>
        </mxCell>
        <mxCell id="H6zTBNjA9fI-ZNXuUB1H-27" value="Get changes" style="text;html=1;align=center;verticalAlign=middle;resizable=0;points=[];autosize=1;strokeColor=none;fillColor=none;" parent="1" vertex="1">
          <mxGeometry x="450" y="305" width="90" height="30" as="geometry" />
        </mxCell>
        <mxCell id="H6zTBNjA9fI-ZNXuUB1H-28" value="" style="endArrow=classic;startArrow=classic;html=1;rounded=0;" parent="1" edge="1">
          <mxGeometry width="50" height="50" relative="1" as="geometry">
            <mxPoint x="600" y="330" as="sourcePoint" />
            <mxPoint x="600" y="180" as="targetPoint" />
          </mxGeometry>
        </mxCell>
        <mxCell id="H6zTBNjA9fI-ZNXuUB1H-29" value="local db" style="rounded=1;whiteSpace=wrap;html=1;" parent="1" vertex="1">
          <mxGeometry x="90" y="295" width="100" height="50" as="geometry" />
        </mxCell>
        <mxCell id="H6zTBNjA9fI-ZNXuUB1H-31" value="&lt;b&gt;&lt;font style=&quot;font-size: 20px;&quot;&gt;This structure may cause problems when handling large files.&lt;/font&gt;&lt;/b&gt;" style="text;html=1;align=center;verticalAlign=middle;resizable=0;points=[];autosize=1;strokeColor=none;fillColor=none;" parent="1" vertex="1">
          <mxGeometry x="20" y="510" width="610" height="40" as="geometry" />
        </mxCell>
      </root>
    </mxGraphModel>
  </diagram>
</mxfile>
